<svg xmlns="http://www.w3.org/2000/svg" width="24" height="24" fill="none" viewBox="0 0 18 18">
  <path fill="currentColor" fill-rule="evenodd" d="M13.642 1.758a.361.361 0 0 0-.692 0l-.588 1.84a.37.37 0 0 1-.232.24l-1.788.605c-.334.114-.334.6 0 .713l1.788.605a.37.37 0 0 1 .232.24l.588 1.84c.11.344.582.344.692 0l.588-1.84a.37.37 0 0 1 .232-.24l1.788-.605c.334-.113.334-.6 0-.713l-1.788-.605a.37.37 0 0 1-.232-.24l-.588-1.84Zm-5.917 3a.361.361 0 0 0-.692 0L5.814 8.574a.37.37 0 0 1-.232.24l-3.707 1.255c-.333.112-.333.599 0 .712l3.707 1.255a.37.37 0 0 1 .232.24l1.22 3.816a.36.36 0 0 0 .691 0l1.219-3.817a.37.37 0 0 1 .232-.239l3.707-1.255c.334-.113.334-.6 0-.713L9.176 8.814a.37.37 0 0 1-.232-.239L7.725 4.758Z" clip-rule="evenodd"/>
</svg>
