<svg xmlns="http://www.w3.org/2000/svg" width="24" height="24" fill="none" viewBox="0 0 20 20">
  <path fill="currentColor" fill-rule="evenodd" d="M2.845 2.5a.833.833 0 1 0-1.178 1.178L3.86 5.872C2.495 7.13 1.604 8.548 1.162 9.352a1.334 1.334 0 0 0 0 1.296c.92 1.676 3.794 6.019 8.838 6.019a8.401 8.401 0 0 0 3.769-.886l2.553 2.552a.833.833 0 0 0 1.178-1.178l-2.271-2.271L2.845 2.5ZM2.71 10c.424-.744 1.201-1.922 2.33-2.949l1.823 1.823a3.333 3.333 0 0 0 4.265 4.265l1.381 1.38A6.679 6.679 0 0 1 10 15c-2.006 0-3.608-.854-4.86-1.963C3.954 11.99 3.144 10.765 2.708 10Z" clip-rule="evenodd"/>
  <path fill="currentColor" d="M13.283 10.58 9.42 6.718a3.333 3.333 0 0 1 3.864 3.864Z"/>
  <path fill="currentColor" d="M15.314 12.611c.94-.939 1.6-1.947 1.977-2.611-.436-.766-1.246-1.99-2.43-3.038C13.61 5.854 12.006 5 10.001 5a6.72 6.72 0 0 0-1.999.3L6.704 4.002A8.37 8.37 0 0 1 10 3.333c5.045 0 7.918 4.343 8.838 6.018.224.408.224.89 0 1.297a14.23 14.23 0 0 1-2.346 3.142l-1.178-1.178Z"/>
</svg>
