<svg xmlns="http://www.w3.org/2000/svg" width="24" height="24" fill="none" viewBox="0 0 20 20">
  <path fill="currentColor" fill-rule="evenodd" d="M13.334 10a3.333 3.333 0 1 1-6.667 0 3.333 3.333 0 0 1 6.667 0Zm-1.667 0a1.667 1.667 0 1 1-3.333 0 1.667 1.667 0 0 1 3.333 0Z" clip-rule="evenodd"/>
  <path fill="currentColor" fill-rule="evenodd" d="M18.838 10.649c.224-.408.224-.89 0-1.297-.92-1.676-3.793-6.019-8.838-6.019-5.044 0-7.917 4.343-8.838 6.019-.224.407-.224.89 0 1.297.92 1.675 3.794 6.018 8.838 6.018 5.045 0 7.918-4.343 8.838-6.018ZM17.291 10c-.436-.765-1.246-1.99-2.43-3.037C13.61 5.854 12.006 5 10.001 5c-2.007 0-3.61.854-4.862 1.963C3.955 8.01 3.145 9.235 2.71 10c.436.766 1.246 1.99 2.43 3.038C6.392 14.146 7.994 15 10 15s3.609-.854 4.861-1.962c1.184-1.047 1.994-2.272 2.43-3.038Z" clip-rule="evenodd"/>
</svg>
