<svg xmlns="http://www.w3.org/2000/svg" width="24" height="24" fill="none" viewBox="0 0 16 16">
  <path fill="currentColor" d="M7.65 11.3a.333.333 0 0 1-.333-.333v-3.91c0-.184.15-.333.333-.333h.695c.184 0 .333.15.333.334v3.909a.333.333 0 0 1-.333.333H7.65ZM8 5.758a.74.74 0 0 1-.52-.201.653.653 0 0 1-.214-.49.64.64 0 0 1 .214-.482.733.733 0 0 1 .52-.204c.203 0 .376.068.519.204a.648.648 0 0 1 0 .972.729.729 0 0 1-.518.201Z"/>
  <path fill="currentColor" fill-rule="evenodd" d="M14.666 8A6.667 6.667 0 1 1 1.333 8a6.667 6.667 0 0 1 13.333 0Zm-1.333 0A5.333 5.333 0 1 1 2.666 8a5.333 5.333 0 0 1 10.667 0Z" clip-rule="evenodd"/>
</svg>
